<svg xmlns="http://www.w3.org/2000/svg" width="429.38" height="922.185" viewBox="0 0 429.38 922.185">
  <g id="Grupo_7" data-name="Grupo 7" transform="translate(1 -3.815)">
    <g id="Grupo_6" data-name="Grupo 6">
      <path id="Caminho_110" data-name="Caminho 110" d="M266.732,139.453l-.427-.443,18.57-19.236h35.987l18.157-19.2h35.522l17.922-18.709h83.425v.626H392.714L374.793,101.2h-35.52l-18.157,19.2h-35.99Z" transform="translate(-267.305 786.547)" fill="#3f3d56"/>
      <path id="Caminho_114" data-name="Caminho 114" d="M318.932,199.841l-2.391-3.184,1.39-1.12,1.132,1.508,3.824-4.182,1.279,1.255Z" transform="translate(-301.363 710.291)" fill="#fff"/>
      <ellipse id="Elipse_14" data-name="Elipse 14" cx="11.179" cy="11.58" rx="11.179" ry="11.58" transform="translate(6.151 895.06)" fill="#fff"/>
      <ellipse id="Elipse_15" data-name="Elipse 15" cx="7.987" cy="8.274" rx="7.987" ry="8.274" transform="translate(9.342 898.366)" fill="#1085be"/>
      <path id="Caminho_113" data-name="Caminho 113" d="M416.467,375.286a11.9,11.9,0,1,1,11.481-11.893A11.693,11.693,0,0,1,416.467,375.286Zm0-23.16a11.274,11.274,0,1,0,10.877,11.267,11.077,11.077,0,0,0-10.877-11.267Z" transform="translate(-399.137 543.247)" fill="#3f3d56"/>
      <path id="Caminho_115" data-name="Caminho 115" d="M500.931,138.841l-2.391-3.184,1.39-1.12,1.132,1.508,3.824-4.182,1.279,1.255Z" transform="translate(-485.023 771.288)" fill="#fff"/>
      <ellipse id="Elipse_11" data-name="Elipse 11" cx="3.021" cy="3.13" rx="3.021" ry="3.13" transform="translate(204.957 865.641)" fill="#cbcbcb"/>
      <ellipse id="Elipse_9" data-name="Elipse 9" cx="11.179" cy="11.58" rx="11.179" ry="11.58" transform="translate(61.14 875.969)" fill="#fff"/>
      <path id="Caminho_111" data-name="Caminho 111" d="M598.467,314.286a11.9,11.9,0,1,1,11.481-11.893A11.693,11.693,0,0,1,598.467,314.286Zm0-23.16a11.274,11.274,0,1,0,10.877,11.267,11.077,11.077,0,0,0-10.877-11.267Z" transform="translate(-526.148 585.156)" fill="#3f3d56"/>
      <ellipse id="Elipse_13" data-name="Elipse 13" cx="7.987" cy="8.274" rx="7.987" ry="8.274" transform="translate(64.331 879.275)" fill="#1085be"/>
      <ellipse id="Elipse_10" data-name="Elipse 10" cx="3.021" cy="3.13" rx="3.021" ry="3.13" transform="translate(122.474 865.641)" fill="#cbcbcb"/>
      <ellipse id="Elipse_12" data-name="Elipse 12" cx="3.021" cy="3.13" rx="3.021" ry="3.13" transform="translate(163.866 865.641)" fill="#cbcbcb"/>
      <path id="Caminho_112" data-name="Caminho 112" d="M500.931,138.841l-2.391-3.184,1.39-1.12,1.132,1.508,3.824-4.182,1.279,1.255Z" transform="translate(-429.374 752.2)" fill="#fff"/>
    </g>
    <g id="Grupo_1" data-name="Grupo 1">
      <line id="Linha_1" data-name="Linha 1" y1="7" x2="6" transform="translate(422 4.141)" fill="none" stroke="#707070" stroke-width="1"/>
      <path id="Caminho_110-2" data-name="Caminho 110" d="M266.732,139.1l-.427-.44,18.57-19.118h35.987l18.157-19.078h35.522l17.922-18.594h83.425v.622H392.714l-17.922,18.594h-35.52l-18.157,19.078h-35.99Z" transform="translate(-54.305 -71.099)" fill="#3f3d56"/>
      <ellipse id="Elipse_10-2" data-name="Elipse 10" cx="3.021" cy="3.13" rx="3.021" ry="3.13" transform="translate(335.474 7.641)" fill="#cbcbcb"/>
      <ellipse id="Elipse_11-2" data-name="Elipse 11" cx="3.021" cy="3.13" rx="3.021" ry="3.13" transform="translate(417.957 7.641)" fill="#cbcbcb"/>
      <ellipse id="Elipse_12-2" data-name="Elipse 12" cx="3.021" cy="3.13" rx="3.021" ry="3.13" transform="translate(376.866 7.641)" fill="#cbcbcb"/>
      <path id="Caminho_112-2" data-name="Caminho 112" d="M500.931,138.841l-2.391-3.184,1.39-1.12,1.132,1.508,3.824-4.182,1.279,1.255Z" transform="translate(-216.374 -105.8)" fill="#fff"/>
      <ellipse id="Elipse_9-2" data-name="Elipse 9" cx="11.179" cy="11.58" rx="11.179" ry="11.58" transform="translate(274.14 17.969)" fill="#fff"/>
      <path id="Caminho_111-2" data-name="Caminho 111" d="M598.467,314.286a11.9,11.9,0,1,1,11.481-11.893A11.693,11.693,0,0,1,598.467,314.286Zm0-23.16a11.274,11.274,0,1,0,10.877,11.267,11.077,11.077,0,0,0-10.877-11.267Z" transform="translate(-313.148 -272.844)" fill="#3f3d56"/>
      <ellipse id="Elipse_13-2" data-name="Elipse 13" cx="7.987" cy="8.274" rx="7.987" ry="8.274" transform="translate(277.331 21.275)" fill="#1085be"/>
      <ellipse id="Elipse_14-2" data-name="Elipse 14" cx="11.179" cy="11.58" rx="11.179" ry="11.58" transform="translate(219.151 37.06)" fill="#fff"/>
      <path id="Caminho_113-2" data-name="Caminho 113" d="M416.467,375.286a11.9,11.9,0,1,1,11.481-11.893A11.693,11.693,0,0,1,416.467,375.286Zm0-23.16a11.274,11.274,0,1,0,10.877,11.267,11.077,11.077,0,0,0-10.877-11.267Z" transform="translate(-186.137 -314.753)" fill="#3f3d56"/>
      <ellipse id="Elipse_15-2" data-name="Elipse 15" cx="7.987" cy="8.274" rx="7.987" ry="8.274" transform="translate(222.342 40.366)" fill="#1085be"/>
      <path id="Caminho_114-2" data-name="Caminho 114" d="M318.932,199.841l-2.391-3.184,1.39-1.12,1.132,1.508,3.824-4.182,1.279,1.255Z" transform="translate(-89.363 -147.709)" fill="#fff"/>
      <path id="Caminho_116" data-name="Caminho 116" d="M318.932,199.841l-2.391-3.184,1.39-1.12,1.132,1.508,3.824-4.182,1.279,1.255Z" transform="translate(-34.582 -166.803)" fill="#fff"/>
    </g>
  </g>
</svg>
