<svg xmlns="http://www.w3.org/2000/svg" width="429.38" height="922.185" viewBox="0 0 429.38 922.185">
  <g id="Grupo_8" data-name="Grupo 8" transform="translate(1 -3.815)">
    <g id="Grupo_7" data-name="Grupo 7">
      <g id="Grupo_6" data-name="Grupo 6">
        <path id="Caminho_110" data-name="Caminho 110" d="M266.732,139.453l-.427-.443,18.57-19.236h35.987l18.157-19.2h35.522l17.922-18.709h83.425v.626H392.714L374.793,101.2h-35.52l-18.157,19.2h-35.99Z" transform="translate(-267.305 786.547)" fill="#3f3d56"/>
        <path id="Caminho_114" data-name="Caminho 114" d="M318.932,199.841l-2.391-3.184,1.39-1.12,1.132,1.508,3.824-4.182,1.279,1.255Z" transform="translate(-301.363 710.291)" fill="#fff"/>
        <ellipse id="Elipse_14" data-name="Elipse 14" cx="11.179" cy="11.58" rx="11.179" ry="11.58" transform="translate(6.151 895.06)" fill="#fff"/>
        <ellipse id="Elipse_15" data-name="Elipse 15" cx="7.987" cy="8.274" rx="7.987" ry="8.274" transform="translate(9.342 898.366)" fill="#1085be"/>
        <path id="Caminho_113" data-name="Caminho 113" d="M416.467,375.286a11.9,11.9,0,1,1,11.481-11.893A11.693,11.693,0,0,1,416.467,375.286Zm0-23.16a11.274,11.274,0,1,0,10.877,11.267,11.077,11.077,0,0,0-10.877-11.267Z" transform="translate(-399.137 543.247)" fill="#3f3d56"/>
        <path id="Caminho_115" data-name="Caminho 115" d="M500.931,138.841l-2.391-3.184,1.39-1.12,1.132,1.508,3.824-4.182,1.279,1.255Z" transform="translate(-485.023 771.288)" fill="#fff"/>
        <ellipse id="Elipse_11" data-name="Elipse 11" cx="3.021" cy="3.13" rx="3.021" ry="3.13" transform="translate(204.957 865.641)" fill="#cbcbcb"/>
        <ellipse id="Elipse_9" data-name="Elipse 9" cx="11.179" cy="11.58" rx="11.179" ry="11.58" transform="translate(61.14 875.969)" fill="#fff"/>
        <path id="Caminho_111" data-name="Caminho 111" d="M598.467,314.286a11.9,11.9,0,1,1,11.481-11.893A11.693,11.693,0,0,1,598.467,314.286Zm0-23.16a11.274,11.274,0,1,0,10.877,11.267,11.077,11.077,0,0,0-10.877-11.267Z" transform="translate(-526.148 585.156)" fill="#3f3d56"/>
        <ellipse id="Elipse_13" data-name="Elipse 13" cx="7.987" cy="8.274" rx="7.987" ry="8.274" transform="translate(64.331 879.275)" fill="#1085be"/>
        <ellipse id="Elipse_10" data-name="Elipse 10" cx="3.021" cy="3.13" rx="3.021" ry="3.13" transform="translate(122.474 865.641)" fill="#cbcbcb"/>
        <ellipse id="Elipse_12" data-name="Elipse 12" cx="3.021" cy="3.13" rx="3.021" ry="3.13" transform="translate(163.866 865.641)" fill="#cbcbcb"/>
        <path id="Caminho_112" data-name="Caminho 112" d="M500.931,138.841l-2.391-3.184,1.39-1.12,1.132,1.508,3.824-4.182,1.279,1.255Z" transform="translate(-429.374 752.2)" fill="#fff"/>
      </g>
      <g id="Grupo_1" data-name="Grupo 1">
        <line id="Linha_1" data-name="Linha 1" y1="7" x2="6" transform="translate(422 4.141)" fill="none" stroke="#707070" stroke-width="1"/>
        <path id="Caminho_110-2" data-name="Caminho 110" d="M266.732,139.1l-.427-.44,18.57-19.118h35.987l18.157-19.078h35.522l17.922-18.594h83.425v.622H392.714l-17.922,18.594h-35.52l-18.157,19.078h-35.99Z" transform="translate(-54.305 -71.099)" fill="#3f3d56"/>
        <ellipse id="Elipse_10-2" data-name="Elipse 10" cx="3.021" cy="3.13" rx="3.021" ry="3.13" transform="translate(335.474 7.641)" fill="#cbcbcb"/>
        <ellipse id="Elipse_11-2" data-name="Elipse 11" cx="3.021" cy="3.13" rx="3.021" ry="3.13" transform="translate(417.957 7.641)" fill="#cbcbcb"/>
        <ellipse id="Elipse_12-2" data-name="Elipse 12" cx="3.021" cy="3.13" rx="3.021" ry="3.13" transform="translate(376.866 7.641)" fill="#cbcbcb"/>
        <path id="Caminho_112-2" data-name="Caminho 112" d="M500.931,138.841l-2.391-3.184,1.39-1.12,1.132,1.508,3.824-4.182,1.279,1.255Z" transform="translate(-216.374 -105.8)" fill="#fff"/>
        <ellipse id="Elipse_9-2" data-name="Elipse 9" cx="11.179" cy="11.58" rx="11.179" ry="11.58" transform="translate(274.14 17.969)" fill="#fff"/>
        <path id="Caminho_111-2" data-name="Caminho 111" d="M598.467,314.286a11.9,11.9,0,1,1,11.481-11.893A11.693,11.693,0,0,1,598.467,314.286Zm0-23.16a11.274,11.274,0,1,0,10.877,11.267,11.077,11.077,0,0,0-10.877-11.267Z" transform="translate(-313.148 -272.844)" fill="#3f3d56"/>
        <ellipse id="Elipse_13-2" data-name="Elipse 13" cx="7.987" cy="8.274" rx="7.987" ry="8.274" transform="translate(277.331 21.275)" fill="#1085be"/>
        <ellipse id="Elipse_14-2" data-name="Elipse 14" cx="11.179" cy="11.58" rx="11.179" ry="11.58" transform="translate(219.151 37.06)" fill="#fff"/>
        <path id="Caminho_113-2" data-name="Caminho 113" d="M416.467,375.286a11.9,11.9,0,1,1,11.481-11.893A11.693,11.693,0,0,1,416.467,375.286Zm0-23.16a11.274,11.274,0,1,0,10.877,11.267,11.077,11.077,0,0,0-10.877-11.267Z" transform="translate(-186.137 -314.753)" fill="#3f3d56"/>
        <ellipse id="Elipse_15-2" data-name="Elipse 15" cx="7.987" cy="8.274" rx="7.987" ry="8.274" transform="translate(222.342 40.366)" fill="#1085be"/>
        <path id="Caminho_114-2" data-name="Caminho 114" d="M318.932,199.841l-2.391-3.184,1.39-1.12,1.132,1.508,3.824-4.182,1.279,1.255Z" transform="translate(-89.363 -147.709)" fill="#fff"/>
        <path id="Caminho_116" data-name="Caminho 116" d="M318.932,199.841l-2.391-3.184,1.39-1.12,1.132,1.508,3.824-4.182,1.279,1.255Z" transform="translate(-34.582 -166.803)" fill="#fff"/>
      </g>
    </g>
    <g id="Group_41" data-name="Group 41" transform="translate(2 8.14)">
      <rect id="Rectangle_62" data-name="Rectangle 62" width="238.196" height="105.401" transform="translate(40.749 93.883)" fill="#e6e6e6"/>
      <rect id="Rectangle_75" data-name="Rectangle 75" width="224.574" height="87.939" transform="translate(47.56 102.922)" fill="#fff"/>
      <rect id="Rectangle_76" data-name="Rectangle 76" width="5.815" height="5.423" transform="translate(228.763 119.29)" fill="#e6e6e6"/>
      <rect id="Rectangle_77" data-name="Rectangle 77" width="5.815" height="5.423" transform="translate(73.649 119.29)" fill="#6c63ff"/>
      <rect id="Rectangle_78" data-name="Rectangle 78" width="19.385" height="18.077" transform="translate(73.481 134.823)" fill="#e6e6e6"/>
      <rect id="Rectangle_80" data-name="Rectangle 80" width="238.196" height="9.436" transform="translate(40.647 87.794)" fill="#6c63ff"/>
      <ellipse id="Ellipse_90" data-name="Ellipse 90" cx="1.876" cy="1.749" rx="1.876" ry="1.749" transform="translate(46.292 92.856)" fill="#fff"/>
      <ellipse id="Ellipse_91" data-name="Ellipse 91" cx="1.876" cy="1.749" rx="1.876" ry="1.749" transform="translate(53.411 92.856)" fill="#fff"/>
      <ellipse id="Ellipse_92" data-name="Ellipse 92" cx="1.876" cy="1.749" rx="1.876" ry="1.749" transform="translate(60.53 92.856)" fill="#fff"/>
      <rect id="Rectangle_60" data-name="Rectangle 60" width="315.191" height="0.631" transform="translate(0 199.285)" fill="#e6e6e6"/>
      <rect id="Rectangle_81" data-name="Rectangle 81" width="47.492" height="2.542" transform="translate(112.97 136.631)" fill="#e6e6e6"/>
      <rect id="Rectangle_82" data-name="Rectangle 82" width="73.339" height="2.542" transform="translate(112.97 145.905)" fill="#6c63ff"/>
      <rect id="Rectangle_83" data-name="Rectangle 83" width="59.769" height="2.542" transform="translate(112.97 154.641)" fill="#e6e6e6"/>
      <rect id="Rectangle_84" data-name="Rectangle 84" width="34.892" height="2.542" transform="translate(112.97 163.346)" fill="#e6e6e6"/>
      <rect id="Rectangle_85" data-name="Rectangle 85" width="52.662" height="2.542" transform="translate(112.97 172.049)" fill="#e6e6e6"/>
      <rect id="Rectangle_88" data-name="Rectangle 88" width="5.815" height="5.423" transform="translate(238.779 119.29)" fill="#e6e6e6"/>
      <rect id="Rectangle_90" data-name="Rectangle 90" width="5.815" height="5.423" transform="translate(248.794 119.29)" fill="#e6e6e6"/>
      <ellipse id="Ellipse_88" data-name="Ellipse 88" cx="11.81" cy="11.013" rx="11.81" ry="11.013" transform="translate(230.989 143.862)" fill="#6c63ff" opacity="0.997"/>
      <ellipse id="Ellipse_97" data-name="Ellipse 97" cx="13.296" cy="12.399" rx="13.296" ry="12.399" transform="translate(50.517 5.024)" fill="#2f2e41"/>
      <path id="Path_630" data-name="Path 630" d="M208.465,479.205h-5.823l-2.77-20.939h8.592Z" transform="translate(-177.74 -355.698)" fill="#feb8b8"/>
      <path id="Path_631" data-name="Path 631" d="M181.963,519.677h11.227v6.592h-18.3A6.843,6.843,0,0,1,181.963,519.677Z" transform="translate(-161.219 -397.721)" fill="#2f2e41"/>
      <path id="Path_632" data-name="Path 632" d="M187.558,466.49,182,464.864l4.08-20.753,8.2,2.4Z" transform="translate(-165.921 -346.012)" fill="#feb8b8"/>
      <path id="Path_633" data-name="Path 633" d="M154.433,500.823l10.713,3.135-2.117,6.29-17.457-5.109a7.178,7.178,0,0,1,8.862-4.316h0Z" transform="translate(-141.823 -384.612)" fill="#2f2e41"/>
      <path id="Path_634" data-name="Path 634" d="M191.472,393.634a2.254,2.254,0,0,1-.744-.126l-4.285-1.5a1.978,1.978,0,0,1-1.336-2.3c1.078-4.521,4.753-19.914,6.766-28.17,2.386-9.793,37.2-11.613,38.682-11.685l.122-.006,3.916,4.588c1.415,4.242.967,7.55-1.333,9.834-6.711,6.663-26.748,2.528-29.137,2.005l-10.649,26.07a2.145,2.145,0,0,1-2,1.283Z" transform="translate(-167.941 -281.512)" fill="#2f2e41"/>
      <path id="Path_635" data-name="Path 635" d="M209.709,403.451a2.254,2.254,0,0,1-.744-.126l-4.283-1.5a1.978,1.978,0,0,1-1.336-2.3c1.078-4.521,4.753-19.914,6.766-28.17,2.386-9.793,37.2-11.613,38.682-11.685l.122-.006,3.915,4.589c1.415,4.242.967,7.55-1.333,9.834-6.711,6.661-26.748,2.529-29.137,2.005l-10.65,26.069a2.145,2.145,0,0,1-2,1.283Z" transform="translate(-180.004 -288.23)" fill="#2f2e41"/>
      <path id="Path_636" data-name="Path 636" d="M168.142,292.349a4.643,4.643,0,0,1,.42.621l23.42,2.3,3.372-4.311,7.641,3.894-6.622,10.46-28.723-6.829a5.257,5.257,0,0,1-5.586.884,4.611,4.611,0,0,1-2.864-4.559,4.733,4.733,0,0,1,3.559-4.111,5.193,5.193,0,0,1,5.383,1.65Z" transform="translate(-150.829 -240.903)" fill="#feb8b8"/>
      <path id="Path_637" data-name="Path 637" d="M297.3,286.1a2.264,2.264,0,0,1-.973-.221c-4.683-2.221-13.8-6.066-22.259-6.871a2.125,2.125,0,0,1-1.47-.775,1.9,1.9,0,0,1-.4-1.555c.763-3.939,2.513-13.97,2.288-22.008a11.04,11.04,0,0,1,8.824-10.835h0a40.363,40.363,0,0,1,4.706-.865,12.282,12.282,0,0,1,9.981,3.3,10.5,10.5,0,0,1,3.106,9.44c-1.508,8.331-3.028,19.966-1.707,28.089a1.938,1.938,0,0,1-.864,1.926A2.207,2.207,0,0,1,297.3,286.1Z" transform="translate(-225.558 -208.311)" fill="#ccc"/>
      <path id="Path_638" data-name="Path 638" d="M264.209,272.528a2.271,2.271,0,0,1-.848-.165l-6.1-2.462a1.946,1.946,0,0,1-1.112-2.62l4.716-10.159a5.613,5.613,0,0,1,7.16-2.7,4.972,4.972,0,0,1,2.894,6.677l-.031.067-4.716,10.159A2.152,2.152,0,0,1,264.209,272.528Z" transform="translate(-214.848 -215.932)" fill="#ccc"/>
      <ellipse id="Ellipse_98" data-name="Ellipse 98" cx="11.663" cy="10.876" rx="11.663" ry="10.876" transform="translate(51.664 9.448)" fill="#feb8b8"/>
      <path id="Path_639" data-name="Path 639" d="M286.484,164.553a44.186,44.186,0,0,0,18.2,5.592L302.765,168a14.994,14.994,0,0,0,4.355.806,4.912,4.912,0,0,0,3.888-1.7,3.894,3.894,0,0,0,.3-3.82,7.959,7.959,0,0,0-2.643-3.082,16.65,16.65,0,0,0-14.647-2.441,9.5,9.5,0,0,0-4.375,2.617c-1.106,1.272-3.234,2.405-2.668,3.955Z" transform="translate(-235.03 -149.573)" fill="#2f2e41"/>
      <path id="Path_640" data-name="Path 640" d="M324.634,139.2a22.889,22.889,0,0,1,8.242-4.971,12.369,12.369,0,0,1,6.244-.723,5.855,5.855,0,0,1,4.634,3.64,6.475,6.475,0,0,1-.753,4.7c-.737,1.468-1.722,2.827-2.318,4.349a9.381,9.381,0,0,0,1.484,9.365,10.967,10.967,0,0,0,9.227,3.946c-2.047.256-3.933,1.153-5.933,1.63s-4.362.445-5.848-.892c-1.573-1.414-1.6-3.713-1.528-5.749l.339-9.08a10.8,10.8,0,0,0-.49-4.578,4.175,4.175,0,0,0-3.672-2.689,6.235,6.235,0,0,0-3.373,1.418,7.1,7.1,0,0,1-3.323,1.549c-1.25.1-2.678-.758-2.584-1.926" transform="translate(-260.264 -133.382)" fill="#2f2e41"/>
      <path id="Path_641" data-name="Path 641" d="M253.438,319.826a5.241,5.241,0,0,1-4.824-3.014,4.636,4.636,0,0,1,1.141-5.31,5.505,5.505,0,0,1,5.7-1.048h0a5.174,5.174,0,0,1,.623.294l21.246-8.894.6-5.373,9.158-.229-.061,8.946a4.882,4.882,0,0,1-3.733,4.581l-24.845,6.594a4.359,4.359,0,0,1-.169.451,5.263,5.263,0,0,1-4.828,3Z" transform="translate(-209.719 -244.834)" fill="#feb8b8"/>
      <path id="Path_642" data-name="Path 642" d="M340.237,271.706a2.256,2.256,0,0,1-.837.211l-6.636.38a2.092,2.092,0,0,1-2.264-1.866l-.728-11.05a5.232,5.232,0,0,1,5.115-5.4,5.341,5.341,0,0,1,5.786,4.77l.729,11.05a1.978,1.978,0,0,1-1.165,1.9Z" transform="translate(-263.656 -215.903)" fill="#ccc"/>
      <rect id="Rectangle_91" data-name="Rectangle 91" width="40.838" height="3.1" rx="1.55" transform="translate(22.984 73.01)" fill="#3f3d56"/>
      <path id="Path_643" data-name="Path 643" d="M157.4,312.073v-21.7a2.991,2.991,0,0,1,3.087-2.878h42.262a2.991,2.991,0,0,1,3.087,2.878v21.7a2.991,2.991,0,0,1-3.087,2.878H160.492A2.991,2.991,0,0,1,157.4,312.073Z" transform="translate(-149.65 -238.842)" fill="#3f3d56"/>
      <ellipse id="Ellipse_99" data-name="Ellipse 99" cx="2.849" cy="2.657" rx="2.849" ry="2.657" transform="translate(29.631 59.726)" fill="#fff"/>
    </g>
  </g>
</svg>
