<svg xmlns="http://www.w3.org/2000/svg" xmlns:xlink="http://www.w3.org/1999/xlink" width="429.38" height="922.185" viewBox="0 0 429.38 922.185">
  <defs>
    <filter id="Support" x="97" y="164.185" width="236" height="88" filterUnits="userSpaceOnUse">
      <feOffset dy="3" input="SourceAlpha"/>
      <feGaussianBlur stdDeviation="3" result="blur"/>
      <feFlood flood-color="#0b5581" flood-opacity="0.49"/>
      <feComposite operator="in" in2="blur"/>
      <feComposite in="SourceGraphic"/>
    </filter>
  </defs>
  <g id="Grupo_3" data-name="Grupo 3" transform="translate(1 -3.815)">
    <path id="Caminho_110" data-name="Caminho 110" d="M266.732,139.453l-.427-.443,18.57-19.236h35.987l18.157-19.2h35.522l17.922-18.709h83.425v.626H392.714L374.793,101.2h-35.52l-18.157,19.2h-35.99Z" transform="translate(-267.305 786.547)" fill="#3f3d56"/>
    <path id="Caminho_51" data-name="Caminho 51" d="M861.1,535.042h0a130.3,130.3,0,0,1-.8-24.112l.8-13.318h0C856.72,507.845,857.711,521.314,861.1,535.042Z" transform="translate(-518.412 -6.405)" fill="#cacaca"/>
    <path id="Caminho_52" data-name="Caminho 52" d="M869.722,550.3h0a95.835,95.835,0,0,1-.383-14.352l.383-7.928h0C867.613,534.115,868.09,542.132,869.722,550.3Z" transform="translate(-523.612 -19.439)" fill="#cacaca"/>
    <rect id="Retângulo_1" data-name="Retângulo 1" width="25.45" height="1.337" transform="translate(332.471 547.397)" fill="#e6e6e6"/>
    <path id="Caminho_54" data-name="Caminho 54" d="M868.187,621.449a28.308,28.308,0,0,1-25.83,0v-9.418a34.919,34.919,0,0,1,25.83,0Z" transform="translate(-510.3 -54.381)" fill="#e6e6e6"/>
    <path id="Caminho_53" data-name="Caminho 53" d="M868.006,583.167v4.456a1.257,1.257,0,0,1-1.14,1.337h-1.9a.352.352,0,0,0-.269.13.486.486,0,0,0-.111.316v36.539a1.257,1.257,0,0,1-1.14,1.337H840.277a1.251,1.251,0,0,1-1.14-1.337V589.406a.418.418,0,0,0-.38-.446h-2.279a1.251,1.251,0,0,1-1.14-1.337v-4.456a1.461,1.461,0,0,1,.333-.946,1.06,1.06,0,0,1,.806-.391h30.388A1.254,1.254,0,0,1,868.006,583.167Z" transform="translate(-506.7 -42.499)" fill="#f2f2f2"/>
    <path id="Caminho_114" data-name="Caminho 114" d="M318.932,199.841l-2.391-3.184,1.39-1.12,1.132,1.508,3.824-4.182,1.279,1.255Z" transform="translate(-301.363 710.291)" fill="#fff"/>
    <ellipse id="Elipse_14" data-name="Elipse 14" cx="11.179" cy="11.58" rx="11.179" ry="11.58" transform="translate(6.151 895.06)" fill="#fff"/>
    <ellipse id="Elipse_15" data-name="Elipse 15" cx="7.987" cy="8.274" rx="7.987" ry="8.274" transform="translate(9.342 898.366)" fill="#1085be"/>
    <path id="Caminho_113" data-name="Caminho 113" d="M416.467,375.286a11.9,11.9,0,1,1,11.481-11.893A11.693,11.693,0,0,1,416.467,375.286Zm0-23.16a11.274,11.274,0,1,0,10.877,11.267,11.077,11.077,0,0,0-10.877-11.267Z" transform="translate(-399.137 543.247)" fill="#3f3d56"/>
    <path id="Caminho_115" data-name="Caminho 115" d="M500.931,138.841l-2.391-3.184,1.39-1.12,1.132,1.508,3.824-4.182,1.279,1.255Z" transform="translate(-485.023 771.288)" fill="#fff"/>
    <path id="Caminho_49" data-name="Caminho 49" d="M281.873,615.79c-9.5,8.311-12.2,22.934-12.2,22.934s12.716,1.148,22.22-7.163,12.2-22.934,12.2-22.934S291.378,607.48,281.873,615.79Z" transform="translate(-216.584 -53.96)" fill="#f1f1f1"/>
    <path id="Caminho_50" data-name="Caminho 50" d="M284.258,607.764c-4.568,12.832-16.008,19.445-16.008,19.445s-4.034-14.192.534-27.025,16.008-19.445,16.008-19.445S288.826,594.932,284.258,607.764Z" transform="translate(-215.009 -42.031)" fill="#f1f1f1"/>
    <ellipse id="Ellipse_276" data-name="Ellipse 276" cx="34.423" cy="40.381" rx="34.423" ry="40.381" transform="translate(180.813 342.311)" fill="#feb8b8"/>
    <path id="Path_1461" data-name="Path 1461" d="M593.62,230.355c-5.146-9.8-13.2-17.027-22.617-20.281l-4.226,3.618v-4.7a31.279,31.279,0,0,0-6.835-.467L556.3,212.4v-3.548c-10.913,1.591-20.763,8.463-27.164,18.954-7.918,13.39-9.254,32.018-1.467,45.515,2.138-7.707,4.732-14.938,6.871-22.644a16.6,16.6,0,0,0,5.065.029l2.6-7.119.727,6.818c8.062-.824,20.019-2.633,27.661-4.29l-.743-5.231,4.446,4.346c2.341-.632,3.732-1.206,3.617-1.644,5.684,10.749,12.64,17.615,18.323,28.364C598.393,256.789,600.877,244.186,593.62,230.355Z" transform="translate(-346.233 117.5)" fill="#2f2e41"/>
    <path id="Caminho_55" data-name="Caminho 55" d="M602.628,446.8c-1.184-8.354-2.4-16.868-5.714-24.394-2.175-4.929-5.628-9.627-10.283-10.6a8.74,8.74,0,0,1-2.677-.727c-1.364-.771-19.692-13.044-22.6-15.182-2.5-1.835-6.45-5.233-8.44-5.233-2-.052-9.683,2.045-39.658-.7a102.268,102.268,0,0,0-14.607,8.424c-.1-.075-31.112,19.463-32.277,19.412-2.207-.109-4.258,1.548-5.523,3.635a25.962,25.962,0,0,0-2.479,7.169c6.774,17.7,12.972,35.417,19.747,53.114a5.155,5.155,0,0,1,.49,2.18,5.793,5.793,0,0,1-.843,2.18c-3.322,6.26-3.217,14.135-2.854,21.493s.812,15.131-1.991,21.726c-.762,1.811-1.754,3.468-2.479,5.279-1.7,4.1-2.312,17.218-1.32,21.624l124.275,4.176C590.716,551.755,602.628,446.8,602.628,446.8Z" transform="translate(-313.357 39.732)" fill="#1085be"/>
    <path id="Path_1421" data-name="Path 1421" d="M436.092,544.479a30.16,30.16,0,0,0-.074,6.348l1.781,30.007c.167,2.828.332,5.649.558,8.471.427,5.475,1.066,10.906,1.858,16.33a2.692,2.692,0,0,0,2.541,2.828c7.841,1.946,15.942,1.868,23.944,1.338,12.211-.8,43.45-2.312,45.359-5.22s.8-7.613-1.692-9.964-43.714-8.085-43.714-8.085a53.97,53.97,0,0,1,2.771-10.826c2.07-6.306,4-12.818,4.041-19.573s-2.132-13.857-6.849-17.727c-3.88-3.177-8.876-3.766-13.6-3.636-3.44.116-9.384-.851-12.527.727C438,536.781,436.557,541.623,436.092,544.479Z" transform="translate(-301.829 -22.249)" fill="#fbbebe"/>
    <path id="Path_1430" data-name="Path 1430" d="M444.745,455.046a7.817,7.817,0,0,0-1.376,2.581,139.59,139.59,0,0,0-8.739,41.895,4.789,4.789,0,0,1-.4,2.029,8.5,8.5,0,0,1-.911,1.156,4.509,4.509,0,0,0,.409,5.656q.084.084.173.161c1.023-2.258,3.471-3,5.647-3.192,10.419-.967,20.6,4.719,31.046,4.29-.737-2.989-1.8-5.86-2.4-8.885-2.659-13.43,3.973-28.051-.093-40.986-.812-2.588-2.169-5.133-4.308-6.268a10.156,10.156,0,0,0-2.758-.856c-2.641-.56-7.9-2.952-10.45-1.992-.942.357-1.314,1.4-2.1,2.024C447.3,453.549,445.728,453.875,444.745,455.046Z" transform="translate(-300.098 13.824)" fill="#1085be"/>
    <path id="Path_1421-2" data-name="Path 1421" d="M678.3,535.5c-3.142-1.578-9.086-.611-12.527-.727-4.728-.131-9.724.459-13.6,3.635-4.717,3.87-6.887,10.972-6.849,17.727s1.971,13.268,4.042,19.573a53.971,53.971,0,0,1,2.771,10.826s-41.225,5.734-43.714,8.085-3.6,7.056-1.692,9.964,61.462,5.829,69.3,3.882a2.692,2.692,0,0,0,2.541-2.828c.792-5.424,1.431-10.855,1.858-16.33.226-2.821.391-5.642.558-8.471l1.781-30.007a30.163,30.163,0,0,0-.074-6.348C682.226,541.623,680.785,536.781,678.3,535.5Z" transform="translate(-388.954 -22.249)" fill="#fbbebe"/>
    <path id="Path_1430-2" data-name="Path 1430" d="M711.416,452.659c-.781-.628-1.153-1.667-2.1-2.024-2.553-.96-7.81,1.432-10.45,1.992a10.158,10.158,0,0,0-2.758.856c-2.138,1.134-3.5,3.679-4.308,6.268-4.066,12.935,2.566,27.557-.093,40.986-.6,3.024-1.662,5.9-2.4,8.885,10.45.429,20.628-5.257,31.046-4.29,2.176.2,4.624.934,5.647,3.192q.089-.077.173-.161a4.508,4.508,0,0,0,.409-5.656,8.512,8.512,0,0,1-.911-1.156,4.792,4.792,0,0,1-.4-2.029,139.593,139.593,0,0,0-8.739-41.895,7.818,7.818,0,0,0-1.376-2.581C714.176,453.875,712.6,453.549,711.416,452.659Z" transform="translate(-431.807 13.824)" fill="#1085be"/>
    <ellipse id="Elipse_1" data-name="Elipse 1" cx="9.291" cy="10.899" rx="9.291" ry="10.899" transform="translate(195.751 565.85)" fill="#fbbebe"/>
    <ellipse id="Elipse_2" data-name="Elipse 2" cx="9.291" cy="10.899" rx="9.291" ry="10.899" transform="translate(216.323 565.85)" fill="#fbbebe"/>
    <path id="Caminho_56" data-name="Caminho 56" d="M601.264,612.269H473.624c-3.1,0-5.617-2.954-5.621-6.593V514.838c0-3.64,2.518-6.589,5.621-6.593H601.264c3.1,0,5.617,2.954,5.621,6.593v90.838C606.882,609.316,604.367,612.265,601.264,612.269Z" transform="translate(-318.301 -10.962)" fill="#3f3d56"/>
    <ellipse id="Ellipse_263" data-name="Ellipse 263" cx="3.719" cy="4.363" rx="3.719" ry="4.363" transform="translate(215.114 544.932)" fill="#fff"/>
    <path id="Caminho_57" data-name="Caminho 57" d="M428,449.724H0v15.429H25.316v3.586H402.694v-3.586H428Z" transform="translate(0 133.261)" fill="#f1f1f1"/>
    <path id="Caminho_58" data-name="Caminho 58" d="M527.012,310.232h0c-5.531,0-10.015-5.687-10.015-12.7h0v-6.351c0-7.015,4.484-12.7,10.015-12.7h0v31.756Z" transform="translate(-343.429 87.511)" fill="#1085be"/>
    <path id="Caminho_59" data-name="Caminho 59" d="M668.779,278.476h0c5.531,0,10.015,5.687,10.015,12.7v6.351c0,7.015-4.484,12.7-10.015,12.7h0Z" transform="translate(-421.275 87.51)" fill="#1085be"/>
    <path id="Caminho_60" data-name="Caminho 60" d="M599.249,266.174H597.66c0-25.56-16.395-46.355-36.547-46.355s-36.547,20.795-36.547,46.355h-1.589c0-26.671,17.108-48.37,38.136-48.37S599.249,239.5,599.249,266.174Z" transform="translate(-346.496 113.512)" fill="#1085be"/>
    <ellipse id="Elipse_11" data-name="Elipse 11" cx="3.021" cy="3.13" rx="3.021" ry="3.13" transform="translate(204.957 865.641)" fill="#cbcbcb"/>
    <ellipse id="Elipse_9" data-name="Elipse 9" cx="11.179" cy="11.58" rx="11.179" ry="11.58" transform="translate(61.14 875.969)" fill="#fff"/>
    <path id="Caminho_111" data-name="Caminho 111" d="M598.467,314.286a11.9,11.9,0,1,1,11.481-11.893A11.693,11.693,0,0,1,598.467,314.286Zm0-23.16a11.274,11.274,0,1,0,10.877,11.267,11.077,11.077,0,0,0-10.877-11.267Z" transform="translate(-526.148 585.156)" fill="#3f3d56"/>
    <ellipse id="Elipse_13" data-name="Elipse 13" cx="7.987" cy="8.274" rx="7.987" ry="8.274" transform="translate(64.331 879.275)" fill="#1085be"/>
    <ellipse id="Elipse_10" data-name="Elipse 10" cx="3.021" cy="3.13" rx="3.021" ry="3.13" transform="translate(122.474 865.641)" fill="#cbcbcb"/>
    <ellipse id="Elipse_12" data-name="Elipse 12" cx="3.021" cy="3.13" rx="3.021" ry="3.13" transform="translate(163.866 865.641)" fill="#cbcbcb"/>
    <path id="Caminho_112" data-name="Caminho 112" d="M500.931,138.841l-2.391-3.184,1.39-1.12,1.132,1.508,3.824-4.182,1.279,1.255Z" transform="translate(-429.374 752.2)" fill="#fff"/>
    <g id="Grupo_2" data-name="Grupo 2" transform="translate(106 174)">
      <g transform="matrix(1, 0, 0, 1, -107, -170.18)" filter="url(#Support)">
        <text id="Support-2" data-name="Support" transform="translate(107 227.18)" fill="#0b5581" font-size="60" font-family="Cambria-BoldItalic, Cambria" font-weight="700" font-style="italic"><tspan x="0" y="0">Support</tspan></text>
      </g>
    </g>
    <g id="Grupo_1" data-name="Grupo 1">
      <line id="Linha_1" data-name="Linha 1" y1="7" x2="6" transform="translate(422 4.141)" fill="none" stroke="#707070" stroke-width="1"/>
      <path id="Caminho_110-2" data-name="Caminho 110" d="M266.732,139.1l-.427-.44,18.57-19.118h35.987l18.157-19.078h35.522l17.922-18.594h83.425v.622H392.714l-17.922,18.594h-35.52l-18.157,19.078h-35.99Z" transform="translate(-54.305 -71.099)" fill="#3f3d56"/>
      <ellipse id="Elipse_10-2" data-name="Elipse 10" cx="3.021" cy="3.13" rx="3.021" ry="3.13" transform="translate(335.474 7.641)" fill="#cbcbcb"/>
      <ellipse id="Elipse_11-2" data-name="Elipse 11" cx="3.021" cy="3.13" rx="3.021" ry="3.13" transform="translate(417.957 7.641)" fill="#cbcbcb"/>
      <ellipse id="Elipse_12-2" data-name="Elipse 12" cx="3.021" cy="3.13" rx="3.021" ry="3.13" transform="translate(376.866 7.641)" fill="#cbcbcb"/>
      <path id="Caminho_112-2" data-name="Caminho 112" d="M500.931,138.841l-2.391-3.184,1.39-1.12,1.132,1.508,3.824-4.182,1.279,1.255Z" transform="translate(-216.374 -105.8)" fill="#fff"/>
      <ellipse id="Elipse_9-2" data-name="Elipse 9" cx="11.179" cy="11.58" rx="11.179" ry="11.58" transform="translate(274.14 17.969)" fill="#fff"/>
      <path id="Caminho_111-2" data-name="Caminho 111" d="M598.467,314.286a11.9,11.9,0,1,1,11.481-11.893A11.693,11.693,0,0,1,598.467,314.286Zm0-23.16a11.274,11.274,0,1,0,10.877,11.267,11.077,11.077,0,0,0-10.877-11.267Z" transform="translate(-313.148 -272.844)" fill="#3f3d56"/>
      <ellipse id="Elipse_13-2" data-name="Elipse 13" cx="7.987" cy="8.274" rx="7.987" ry="8.274" transform="translate(277.331 21.275)" fill="#1085be"/>
      <ellipse id="Elipse_14-2" data-name="Elipse 14" cx="11.179" cy="11.58" rx="11.179" ry="11.58" transform="translate(219.151 37.06)" fill="#fff"/>
      <path id="Caminho_113-2" data-name="Caminho 113" d="M416.467,375.286a11.9,11.9,0,1,1,11.481-11.893A11.693,11.693,0,0,1,416.467,375.286Zm0-23.16a11.274,11.274,0,1,0,10.877,11.267,11.077,11.077,0,0,0-10.877-11.267Z" transform="translate(-186.137 -314.753)" fill="#3f3d56"/>
      <ellipse id="Elipse_15-2" data-name="Elipse 15" cx="7.987" cy="8.274" rx="7.987" ry="8.274" transform="translate(222.342 40.366)" fill="#1085be"/>
      <path id="Caminho_114-2" data-name="Caminho 114" d="M318.932,199.841l-2.391-3.184,1.39-1.12,1.132,1.508,3.824-4.182,1.279,1.255Z" transform="translate(-89.363 -147.709)" fill="#fff"/>
      <path id="Caminho_116" data-name="Caminho 116" d="M318.932,199.841l-2.391-3.184,1.39-1.12,1.132,1.508,3.824-4.182,1.279,1.255Z" transform="translate(-34.582 -166.803)" fill="#fff"/>
    </g>
  </g>
</svg>
