<svg xmlns="http://www.w3.org/2000/svg" width="379" height="220" viewBox="0 0 379 220">
  <g id="Grupo_4" data-name="Grupo 4" transform="translate(-25 -98)">
    <path id="Path_141" data-name="Path 141" d="M755.95,450.274H544.918a2.577,2.577,0,0,1-2.453-2.679V233.521a2.577,2.577,0,0,1,2.453-2.679H755.95a2.577,2.577,0,0,1,2.453,2.679V447.594a2.576,2.576,0,0,1-2.453,2.679ZM544.918,231.912a1.546,1.546,0,0,0-1.47,1.606V447.594a1.546,1.546,0,0,0,1.47,1.606H755.95a1.546,1.546,0,0,0,1.47-1.606V233.521a1.546,1.546,0,0,0-1.471-1.606Z" transform="translate(-354.403 -132.842)" fill="#e6e6e6"/>
    <path id="Path_142" data-name="Path 142" d="M762.852,341.671a1.826,1.826,0,0,0,0,3.638h91.374a1.826,1.826,0,0,0,0-3.638Z" transform="translate(-472.623 -188.044)" fill="#e6e6e6"/>
    <path id="Path_143" data-name="Path 143" d="M762.852,363.417a1.826,1.826,0,0,0,0,3.638H809.5a1.826,1.826,0,0,0,0-3.638Z" transform="translate(-472.623 -198.875)" fill="#e6e6e6"/>
    <path id="Path_142-2" data-name="Path 142" d="M589.045,468.671a1.826,1.826,0,0,0,0,3.638H760.372a1.826,1.826,0,0,0,0-3.638Z" transform="translate(-378.68 -251.3)" fill="#e6e6e6"/>
    <path id="Path_143-2" data-name="Path 143" d="M589.045,490.417a1.826,1.826,0,0,0,0,3.638h126.6a1.826,1.826,0,0,0,0-3.638Z" transform="translate(-378.68 -262.131)" fill="#e6e6e6"/>
    <path id="Path_142-3" data-name="Path 142" d="M589.045,511.671a1.826,1.826,0,0,0,0,3.638H760.372a1.826,1.826,0,0,0,0-3.638Z" transform="translate(-378.68 -272.717)" fill="#e6e6e6"/>
    <path id="Path_143-3" data-name="Path 143" d="M589.045,533.417a1.826,1.826,0,0,0,0,3.638h126.6a1.826,1.826,0,0,0,0-3.638Z" transform="translate(-378.68 -283.548)" fill="#e6e6e6"/>
    <path id="Path_154" data-name="Path 154" d="M555.861,349.7H423.4a2.576,2.576,0,0,1-2.453-2.679v-63.5a2.576,2.576,0,0,1,2.453-2.679H555.861a2.576,2.576,0,0,1,2.453,2.679v63.5A2.576,2.576,0,0,1,555.861,349.7Z" transform="translate(-288.724 -157.746)" fill="#1085be"/>
    <path id="Path_154-2" data-name="Path 154" d="M899.61,603.988H849.4a2.576,2.576,0,0,1-2.453-2.679v-8.787a2.576,2.576,0,0,1,2.453-2.679H899.61a2.576,2.576,0,0,1,2.453,2.679v8.787A2.576,2.576,0,0,1,899.61,603.988Z" transform="translate(-518.977 -311.652)" fill="#0b5581"/>
    <path id="Caminho_117" data-name="Caminho 117" d="M311.5,390.465a5.9,5.9,0,0,1-1.418-7.364,4.551,4.551,0,0,1,.464-.633l.138-46.909,6.383,1.3.28,46.137a5.872,5.872,0,0,1,.57,6.493A4.169,4.169,0,0,1,311.5,390.465Z" transform="translate(-228.408 -184.999)" fill="#ffb8b8"/>
    <path id="Caminho_118" data-name="Caminho 118" d="M198.682,395.786h6.581l3.131-27.727h-9.713Z" transform="translate(-82.387 -85.322)" fill="#ffb8b8"/>
    <path id="Caminho_119" data-name="Caminho 119" d="M382.626,649.466h12.961c4.561,0,8.259,4.039,8.259,9.021v.294h-21.22Z" transform="translate(-268.01 -341.35)" fill="#2f2e41"/>
    <path id="Caminho_120" data-name="Caminho 120" d="M65.5,395.786h6.581l3.131-27.727H65.5Z" transform="translate(-10.405 -85.322)" fill="#ffb8b8"/>
    <path id="Caminho_121" data-name="Caminho 121" d="M249.449,649.466H262.41c4.561,0,8.259,4.039,8.259,9.021v.294h-21.22Z" transform="translate(-196.028 -341.35)" fill="#2f2e41"/>
    <path id="Caminho_122" data-name="Caminho 122" d="M310.909,518.587l-.552-3.615a2.682,2.682,0,0,1-1.364-1.2,5.95,5.95,0,0,1-.281-4.277l-4.44-40.961L281.09,442.267l-14.872,39.182-5.887,31.006v4.48l-11.754,1.649.535-4.222a2.332,2.332,0,0,1-1.067-1.039c-.675-1.228-.666-3.131.027-5.656l.03-.11-.038-.377c-.027-.264.15-25.59,7.042-38.138l6.9-38.1c-.179-.536-1.064-3.66.559-8.939,1.6-5.209,6.082-13.6,18.328-24l.042-.035.052-.012c.136-.031,13.642-2.964,20.627,7.014l.047.067v.085c0,.617-.012,14.972-1.051,18.158l16.575,33.291c.323.373,3.221,4.029,2.191,13.639l2.678,32.759c.306.639,3.078,6.656.023,9.038l.548,4.137Z" transform="translate(-194.998 -215.868)" fill="#2f2e41"/>
    <path id="Caminho_123" data-name="Caminho 123" d="M313.534,338.8c-3.112,0-7.248-1.2-9.78-6.74l-.05-.109,6.237-14.442a7.005,7.005,0,0,1,9.5-3.862,8.214,8.214,0,0,1,3.746,10.289L317.8,338.059l-.094.038A12.444,12.444,0,0,1,313.534,338.8Z" transform="translate(-225.353 -173.746)" fill="#1085be"/>
    <path id="Caminho_124" data-name="Caminho 124" d="M339.569,368.329l-19.663-10.142,2.7-36.019,4.927-6.578.955-.223a23.1,23.1,0,0,1,13.2.8l.094.034,8.094,18.861c.051.094,5.888,11.351-2.181,17.286Z" transform="translate(-234.11 -174.639)" fill="#0b5581"/>
    <path id="Caminho_125" data-name="Caminho 125" d="M385.82,382.442a4.7,4.7,0,0,0-.678.379l-20.72-10.353-.532-6.018-8.42-.311-.007,10.754a3.984,3.984,0,0,0,2.644,3.856l24.881,7.943a4.966,4.966,0,0,0,4.185,3.868,4.756,4.756,0,0,0,4.793-2.907,5.646,5.646,0,0,0-.793-5.926A4.542,4.542,0,0,0,385.82,382.442Z" transform="translate(-253.329 -200.231)" fill="#ffb8b8"/>
    <path id="Caminho_126" data-name="Caminho 126" d="M357.358,345.468a10.082,10.082,0,0,1-7.583-3.686l-.079-.086,1.728-15.857c.466-4.273,3.97-7.358,7.891-6.946s6.824,4.168,6.537,8.459l-1.02,15.259-.078.068A12.559,12.559,0,0,1,357.358,345.468Z" transform="translate(-250.211 -176.68)" fill="#1085be"/>
    <path id="Caminho_129" data-name="Caminho 129" d="M15.3.735C23.1.452,29.191,6.25,28.908,13.686S22.073,27.38,14.274,27.663.382,22.147.665,14.711,7.5,1.017,15.3.735Z" transform="translate(82.345 127.66) rotate(-61.337)" fill="#ffb8b8"/>
    <path id="Caminho_127" data-name="Caminho 127" d="M287.266,249.786a11.888,11.888,0,0,0-7.348-9.012,14.668,14.668,0,0,0-11.306.672,18.126,18.126,0,0,0-1.738.913,7.875,7.875,0,0,0-7.416-4.115c-3.528.205-6.715,2.244-9.779,4.166s-6.353,3.834-9.885,3.745c-6.384-.162-11.133-6.627-17.272-8.548a13.209,13.209,0,0,0-15.008,5.68,16.238,16.238,0,0,0-.193,17.349c2.619-5.127,8.77-6.859,14.107-6.161s10.311,3.253,15.54,4.615,11.284,1.3,15.334-2.557c2.3-2.19,3.646-5.319,5.646-7.833a9.216,9.216,0,0,1,5.247-3.474,17.556,17.556,0,0,0-4.309,6.982c-1.578,4.9-.734,10.777,2.539,14.541,3.509,4.036,9.017,5.111,14.112,5.046l.107-.118c-1.56-2.551-2.791-6.087-1.074-8.514,1.7-2.4,5.039-2.043,7.636-3.1C285.823,258.583,287.92,253.942,287.266,249.786Z" transform="translate(-171.952 -135.921)" fill="#2f2e41"/>
    <path id="Caminho_128" data-name="Caminho 128" d="M313.5,668.162H188.056a.5.5,0,0,1,0-1H313.5a.5.5,0,0,1,0,1Z" transform="translate(-162.596 -350.162)" fill="#ccc"/>
    <path id="Path_155" data-name="Path 155" d="M556.263,325.212c-.575,0-1.041.818-1.04,1.823s.466,1.813,1.04,1.815H605.37c.575,0,1.041-.818,1.04-1.823s-.466-1.813-1.04-1.815Z" transform="translate(-361.299 -179.846)" fill="#fff"/>
    <path id="Path_156" data-name="Path 156" d="M556.263,346.212c-.575,0-1.041.818-1.04,1.823s.466,1.813,1.04,1.815H605.37c.575,0,1.041-.818,1.04-1.823s-.466-1.813-1.04-1.815Z" transform="translate(-361.299 -190.305)" fill="#fff"/>
    <path id="Path_157" data-name="Path 157" d="M556.263,366.958c-.575,0-1.041.818-1.04,1.823s.466,1.813,1.04,1.815h21.13c.575,0,1.041-.818,1.04-1.823s-.466-1.813-1.04-1.815Z" transform="translate(-361.299 -200.639)" fill="#fff"/>
    <ellipse id="Elipse_17" data-name="Elipse 17" cx="13.325" cy="14.556" rx="13.325" ry="14.556" transform="translate(156.705 142.968)" fill="#fff"/>
  </g>
</svg>
